<?xml version="1.0" encoding="UTF-8"?>
<svg width="950" height="550" xmlns="http://www.w3.org/2000/svg">
    <!-- Background -->
    <rect width="950" height="550" fill="#FFE4E1"/>
    
    <!-- Title -->
    <text x="475" y="30" text-anchor="middle" font-family="Arial" font-size="24" font-weight="bold" fill="#2F4F4F">
        Echo Garden - Sunset Gradient
    </text>
    <text x="475" y="50" text-anchor="middle" font-family="Arial" font-size="14" fill="#696969">
        15 Beautiful Trees Generated
    </text>
    
    <!-- Trees -->
    <rect x="588" y="216" width="6" height="34" fill="#F4A460"/>
    <circle cx="601" cy="203" r="34" fill="#ADFF2F" opacity="0.8"/>
    <circle cx="592" cy="191" r="22" fill="#FFD700" opacity="0.8"/>
    <circle cx="593" cy="196" r="24" fill="#FF6347" opacity="0.8"/>
    <rect x="675" y="329" width="4" height="20" fill="#F4A460"/>
    <circle cx="681" cy="327" r="25" fill="#FFD700" opacity="0.8"/>
    <circle cx="685" cy="313" r="20" fill="#FFFF00" opacity="0.8"/>
    <circle cx="666" cy="316" r="18" fill="#32CD32" opacity="0.8"/>
    <rect x="342" y="207" width="4" height="23" fill="#F4A460"/>
    <circle cx="338" cy="194" r="22" fill="#FF6347" opacity="0.8"/>
    <circle cx="338" cy="186" r="18" fill="#FFFF00" opacity="0.8"/>
    <circle cx="349" cy="195" r="25" fill="#FF8C00" opacity="0.8"/>
    <rect x="726" y="234" width="6" height="32" fill="#8B4513"/>
    <circle cx="726" cy="218" r="29" fill="#32CD32" opacity="0.8"/>
    <circle cx="720" cy="216" r="25" fill="#FF8C00" opacity="0.8"/>
    <circle cx="716" cy="228" r="24" fill="#FF6347" opacity="0.8"/>
    <rect x="564" y="298" width="9" height="45" fill="#8B4513"/>
    <circle cx="555" cy="270" r="43" fill="#00FF7F" opacity="0.8"/>
    <circle cx="560" cy="279" r="34" fill="#00FF7F" opacity="0.8"/>
    <circle cx="559" cy="279" r="30" fill="#FFFF00" opacity="0.8"/>
    <rect x="102" y="221" width="7" height="39" fill="#DEB887"/>
    <circle cx="109" cy="192" r="39" fill="#FFFF00" opacity="0.8"/>
    <circle cx="112" cy="202" r="27" fill="#FF69B4" opacity="0.8"/>
    <circle cx="100" cy="192" r="32" fill="#FF6347" opacity="0.8"/>
    <rect x="470" y="211" width="6" height="34" fill="#F4A460"/>
    <circle cx="461" cy="202" r="36" fill="#FF69B4" opacity="0.8"/>
    <circle cx="480" cy="193" r="22" fill="#FF1493" opacity="0.8"/>
    <circle cx="467" cy="201" r="25" fill="#32CD32" opacity="0.8"/>
    <rect x="113" y="266" width="6" height="33" fill="#FFDAB9"/>
    <circle cx="129" cy="246" r="25" fill="#32CD32" opacity="0.8"/>
    <circle cx="126" cy="252" r="27" fill="#00FF7F" opacity="0.8"/>
    <circle cx="131" cy="253" r="25" fill="#FFD700" opacity="0.8"/>
    <rect x="586" y="127" width="8" height="42" fill="#F4A460"/>
    <circle cx="601" cy="112" r="38" fill="#ADFF2F" opacity="0.8"/>
    <circle cx="593" cy="101" r="37" fill="#00FF7F" opacity="0.8"/>
    <circle cx="591" cy="106" r="36" fill="#FF8C00" opacity="0.8"/>
    <rect x="655" y="141" width="7" height="37" fill="#CD853F"/>
    <circle cx="655" cy="116" r="29" fill="#ADFF2F" opacity="0.8"/>
    <circle cx="649" cy="119" r="33" fill="#FF4500" opacity="0.8"/>
    <circle cx="673" cy="117" r="26" fill="#FFD700" opacity="0.8"/>
    <rect x="424" y="380" width="9" height="49" fill="#FFDAB9"/>
    <circle cx="425" cy="363" r="35" fill="#FF8C00" opacity="0.8"/>
    <circle cx="436" cy="350" r="43" fill="#FF1493" opacity="0.8"/>
    <circle cx="432" cy="365" r="36" fill="#FFFF00" opacity="0.8"/>
    <rect x="123" y="150" width="8" height="42" fill="#8B4513"/>
    <circle cx="116" cy="129" r="34" fill="#FFD700" opacity="0.8"/>
    <circle cx="113" cy="127" r="27" fill="#FF4500" opacity="0.8"/>
    <circle cx="139" cy="129" r="39" fill="#00FF7F" opacity="0.8"/>
    <rect x="557" y="392" width="6" height="30" fill="#8B4513"/>
    <circle cx="565" cy="383" r="32" fill="#00FF7F" opacity="0.8"/>
    <circle cx="555" cy="367" r="31" fill="#FF69B4" opacity="0.8"/>
    <circle cx="558" cy="382" r="23" fill="#FF4500" opacity="0.8"/>
    <rect x="87" y="407" width="5" height="28" fill="#8B4513"/>
    <circle cx="87" cy="386" r="22" fill="#FF8C00" opacity="0.8"/>
    <circle cx="95" cy="400" r="26" fill="#00FF7F" opacity="0.8"/>
    <circle cx="75" cy="388" r="26" fill="#FF6347" opacity="0.8"/>
    <rect x="456" y="222" width="7" height="36" fill="#DEB887"/>
    <circle cx="466" cy="205" r="28" fill="#FF8C00" opacity="0.8"/>
    <circle cx="462" cy="208" r="24" fill="#ADFF2F" opacity="0.8"/>
    <circle cx="465" cy="200" r="33" fill="#FF8C00" opacity="0.8"/>
    <line x1="333" y1="525" x2="335" y2="512" 
          stroke="#FFD700" stroke-width="2" opacity="0.6"/>
    <line x1="336" y1="525" x2="335" y2="517" 
          stroke="#FFD700" stroke-width="2" opacity="0.6"/>
    <line x1="334" y1="525" x2="334" y2="510" 
          stroke="#FFD700" stroke-width="2" opacity="0.6"/>
    <line x1="206" y1="492" x2="205" y2="480" 
          stroke="#FFFF00" stroke-width="2" opacity="0.6"/>
    <line x1="206" y1="492" x2="206" y2="478" 
          stroke="#FFFF00" stroke-width="2" opacity="0.6"/>
    <line x1="208" y1="492" x2="207" y2="480" 
          stroke="#FFFF00" stroke-width="2" opacity="0.6"/>
    <line x1="694" y1="482" x2="694" y2="467" 
          stroke="#FF8C00" stroke-width="2" opacity="0.6"/>
    <line x1="696" y1="482" x2="698" y2="472" 
          stroke="#FF8C00" stroke-width="2" opacity="0.6"/>
    <line x1="691" y1="482" x2="690" y2="468" 
          stroke="#FF8C00" stroke-width="2" opacity="0.6"/>
    <line x1="682" y1="450" x2="684" y2="435" 
          stroke="#FF4500" stroke-width="2" opacity="0.6"/>
    <line x1="681" y1="450" x2="683" y2="439" 
          stroke="#FF4500" stroke-width="2" opacity="0.6"/>
    <line x1="682" y1="450" x2="681" y2="442" 
          stroke="#FF4500" stroke-width="2" opacity="0.6"/>
    <line x1="876" y1="526" x2="878" y2="511" 
          stroke="#32CD32" stroke-width="2" opacity="0.6"/>
    <line x1="868" y1="526" x2="868" y2="518" 
          stroke="#32CD32" stroke-width="2" opacity="0.6"/>
    <line x1="877" y1="526" x2="875" y2="516" 
          stroke="#32CD32" stroke-width="2" opacity="0.6"/>
    <line x1="357" y1="463" x2="356" y2="451" 
          stroke="#FFFF00" stroke-width="2" opacity="0.6"/>
    <line x1="362" y1="463" x2="361" y2="454" 
          stroke="#FFFF00" stroke-width="2" opacity="0.6"/>
    <line x1="360" y1="463" x2="358" y2="452" 
          stroke="#FFFF00" stroke-width="2" opacity="0.6"/>
    <line x1="716" y1="487" x2="716" y2="478" 
          stroke="#FFFF00" stroke-width="2" opacity="0.6"/>
    <line x1="711" y1="487" x2="709" y2="472" 
          stroke="#FFFF00" stroke-width="2" opacity="0.6"/>
    <line x1="711" y1="487" x2="713" y2="477" 
          stroke="#FFFF00" stroke-width="2" opacity="0.6"/>
</svg>